<?xml version="1.0" encoding="UTF-8"?>
<svg width="18px" height="68px" viewBox="0 0 18 68" version="1.1" xmlns="http://www.w3.org/2000/svg" xmlns:xlink="http://www.w3.org/1999/xlink">
    <!-- Generator: Sketch 64 (93537) - https://sketch.com -->
    <title>Group 10</title>
    <desc>Created with Sketch.</desc>
    <defs>
        <linearGradient x1="50%" y1="0%" x2="50%" y2="100%" id="linearGradient-1">
            <stop stop-color="#F50E02" offset="0%"></stop>
            <stop stop-color="#FFFFFF" offset="100%"></stop>
        </linearGradient>
        <polygon id="path-2" points="0 0.24738 16.7538778 0.24738 16.7538778 17.1 0 17.1"></polygon>
        <polygon id="path-4" points="0.1581 0.24738 16.9106556 0.24738 16.9106556 17.1 0.1581 17.1"></polygon>
        <polygon id="path-6" points="0.31578 0.24738 17.1684 0.24738 17.1684 17.1 0.31578 17.1"></polygon>
    </defs>
    <g id="Page-1" stroke="none" stroke-width="1" fill="none" fill-rule="evenodd">
        <g id="Home-Copy-2" transform="translate(-128.000000, -364.000000)">
            <path d="M-150.997211,437 L104.693499,437 C126.784889,437 144.693499,454.90861 144.693499,477 C144.693499,485.467271 142.006574,493.716134 137.019569,500.558974 L9.17421373,675.979937 C-3.83704806,693.833132 -28.8576341,697.758294 -46.7108292,684.747033 C-50.0710986,682.298096 -53.0289885,679.340206 -55.4779252,675.979937 L-183.32328,500.558974 C-196.334542,482.705778 -192.409379,457.685192 -174.556184,444.673931 C-167.713344,439.686925 -159.464482,437 -150.997211,437 Z" id="Path-33" fill="url(#linearGradient-1)" opacity="0.149999991" transform="translate(-23.153250, 564.711876) rotate(-285.000000) translate(23.153250, -564.711876) "></path>
            <g id="Banner" opacity="0.100000001">
                <g id="Shapes" transform="translate(0.000000, 32.000000)">
                    <g id="Group-10" transform="translate(137.000000, 366.000000) rotate(-270.000000) translate(-137.000000, -366.000000) translate(103.000000, 357.000000)">
                        <g id="Group-3">
                            <mask id="mask-3" fill="white">
                                <use xlink:href="#path-2"></use>
                            </mask>
                            <g id="Clip-2"></g>
                            <path d="M15.3372111,7.24888 L9.79332222,7.24888 L9.79332222,1.67238 C9.79332222,0.88578 9.15865556,0.24738 8.37665556,0.24738 C7.59465556,0.24738 6.95998889,0.88578 6.95998889,1.67238 L6.95998889,7.24888 L1.4161,7.24888 C0.6341,7.24888 -0.000566666667,7.88728 -0.000566666667,8.67388 C-0.000566666667,9.46048 0.6341,10.09888 1.4161,10.09888 L6.95998889,10.09888 L6.95998889,15.67538 C6.95998889,16.46198 7.59465556,17.10038 8.37665556,17.10038 C9.15865556,17.10038 9.79332222,16.46198 9.79332222,15.67538 L9.79332222,10.09888 L15.3372111,10.09888 C16.1192111,10.09888 16.7538778,9.46048 16.7538778,8.67388 C16.7538778,7.88728 16.1192111,7.24888 15.3372111,7.24888" id="Fill-1" fill="#F50E02" mask="url(#mask-3)"></path>
                        </g>
                        <g id="Group-6" transform="translate(25.000000, 0.000000)">
                            <mask id="mask-5" fill="white">
                                <use xlink:href="#path-4"></use>
                            </mask>
                            <g id="Clip-5"></g>
                            <path d="M15.4939889,7.24888 L9.9501,7.24888 L9.9501,1.67238 C9.9501,0.88578 9.31543333,0.24738 8.53343333,0.24738 C7.75332222,0.24738 7.11676667,0.88578 7.11676667,1.67238 L7.11676667,7.24888 L1.57476667,7.24888 C0.790877778,7.24888 0.1581,7.88728 0.1581,8.67388 C0.1581,9.46048 0.790877778,10.09888 1.57476667,10.09888 L7.11676667,10.09888 L7.11676667,15.67538 C7.11676667,16.46198 7.75332222,17.10038 8.53343333,17.10038 C9.31543333,17.10038 9.9501,16.46198 9.9501,15.67538 L9.9501,10.09888 L15.4939889,10.09888 C16.2778778,10.09888 16.9106556,9.46048 16.9106556,8.67388 C16.9106556,7.88728 16.2778778,7.24888 15.4939889,7.24888" id="Fill-4" fill="#F50E02" mask="url(#mask-5)"></path>
                        </g>
                        <g id="Group-9" transform="translate(50.000000, 0.000000)">
                            <mask id="mask-7" fill="white">
                                <use xlink:href="#path-6"></use>
                            </mask>
                            <g id="Clip-8"></g>
                            <path d="M15.74378,7.24888 L10.16728,7.24888 L10.16728,1.67238 C10.16728,0.88578 9.52888,0.24738 8.74228,0.24738 C7.95568,0.24738 7.31728,0.88578 7.31728,1.67238 L7.31728,7.24888 L1.74078,7.24888 C0.95418,7.24888 0.31578,7.88728 0.31578,8.67388 C0.31578,9.46048 0.95418,10.09888 1.74078,10.09888 L7.31728,10.09888 L7.31728,15.67538 C7.31728,16.46198 7.95568,17.10038 8.74228,17.10038 C9.52888,17.10038 10.16728,16.46198 10.16728,15.67538 L10.16728,10.09888 L15.74378,10.09888 C16.53038,10.09888 17.16878,9.46048 17.16878,8.67388 C17.16878,7.88728 16.53038,7.24888 15.74378,7.24888" id="Fill-7" fill="#F50E02" mask="url(#mask-7)"></path>
                        </g>
                    </g>
                </g>
            </g>
        </g>
    </g>
</svg>
