<?xml version="1.0" encoding="UTF-8"?>
<svg width="159px" height="162px" viewBox="0 0 159 162" version="1.1" xmlns="http://www.w3.org/2000/svg" xmlns:xlink="http://www.w3.org/1999/xlink">
    <!-- Generator: Sketch 64 (93537) - https://sketch.com -->
    <title>Group 3</title>
    <desc>Created with Sketch.</desc>
    <defs>
        <polygon id="path-1" points="0 0 188 0 188 188 0 188"></polygon>
        <linearGradient x1="50%" y1="27.3889727%" x2="50%" y2="100%" id="linearGradient-3">
            <stop stop-color="#EFF0F8" stop-opacity="0" offset="0%"></stop>
            <stop stop-color="#D7D8E3" offset="100%"></stop>
        </linearGradient>
        <polygon id="path-4" points="0 0 159 0 159 162 0 162"></polygon>
    </defs>
    <g id="Page-1" stroke="none" stroke-width="1" fill="none" fill-rule="evenodd">
        <g id="Home-Copy-2" transform="translate(0.000000, -123.000000)">
            <g id="Banner">
                <g id="Shapes" transform="translate(0.000000, 32.000000)">
                    <g id="Group-3" transform="translate(34.000000, 122.000000)">
                        <mask id="mask-2" fill="white">
                            <use xlink:href="#path-1"></use>
                        </mask>
                        <g id="Clip-2"></g>
                        <path d="M94,188 C42.0847895,188 0,145.915211 0,94 C0,42.0872632 42.0847895,0 94,0 C145.915211,0 188,42.0872632 188,94 C188,145.915211 145.915211,188 94,188 Z" id="Fill-1" fill="url(#linearGradient-3)" opacity="0.100000001" mask="url(#mask-2)"></path>
                    </g>
                    <g id="Group-3" opacity="0.300000012" transform="translate(0.000000, 91.000000)">
                        <mask id="mask-5" fill="white">
                            <use xlink:href="#path-4"></use>
                        </mask>
                        <g id="Clip-2"></g>
                        <path d="M104.822649,154.947681 L104.803427,154.947681 C103.984087,154.947681 103.265663,155.273025
                        102.667377,155.73712 C102.552045,155.825632 102.407879,155.878262 102.304561,155.98352 C101.730302,
                        156.555265 101.396319,157.342312 101.326639,158.198733 C101.319431,158.294423 101.271375,158.378151
                         101.271375,158.476233 C101.271375,158.91162 101.374694,159.315908 101.521262,159.701059 C101.569317,
                         159.825455 101.629386,159.933106 101.689455,160.047933 C101.819204,160.301511 101.975383,160.531166
                          102.162798,160.746467 C102.254103,160.851726 102.335797,160.956984 102.439115,161.052674 C102.72264
                          ,161.308643 103.034999,161.533513 103.390607,161.689009 L103.393009,161.689009 C103.832714,161.88278
                           104.313265,162 104.822649,162 C106.40126,162 107.69154,160.954592 108.150467,159.533602 C108.273008
                           ,159.208258 108.357104,158.866168 108.359507,158.495371 C108.359507,158.488194 108.364312,158.483409
                            108.364312,158.476233 C108.364312,156.526558 106.77609,154.947681 104.822649,154.947681 M156.772645,
                            110.940061 C156.429051,110.798919 156.04461,110.741505 155.655363,110.717583 C155.585683,110.712798
                            155.528017,110.676915 155.458337,110.676915 L155.439115,110.676915 C153.483271,110.676915
                             151.907063,112.255792 151.907063,114.203074 C151.907063,114.67913 152.005576,115.126479 152.178575,115.533159 C152.298712,115.82262 152.493336,116.059452 152.680751,116.30346 C152.755236,116.396757 152.798486,116.513977 152.882582,116.597705 C153.471258,117.219687 154.283389,117.604838 155.191631,117.674213 C155.196437,117.676605 155.198839,117.678997 155.206048,117.678997 C155.292547,117.683782 155.369435,117.729234 155.458337,117.729234 C157.414181,117.729234 159,116.150357 159,114.203074 C159,112.719887 158.074939,111.461569 156.772645,110.940061 M28.8715205,44.2683737 L28.8498957,44.2683737 C26.894052,44.2683737 25.3202466,45.8496434 25.3202466,47.7969255 C25.3202466,49.7418154 26.9156769,51.3230851 28.8715205,51.3230851 C30.8249615,51.3230851 32.4107807,49.7418154 32.4107807,47.7969255 C32.4107807,45.8496434 30.8249615,44.2683737 28.8715205,44.2683737 M28.8715205,132.812298 L28.8498957,132.812298 C26.894052,132.812298 25.3202466,134.391175 25.3202466,136.34085 C25.3202466,138.28574 26.9156769,139.864617 28.8715205,139.864617 C30.8249615,139.864617 32.4107807,138.28574 32.4107807,136.34085 C32.4107807,134.391175 30.8249615,132.812298 28.8715205,132.812298 M54.1869616,73.4608603 C56.1428053,73.4608603 57.7262218,71.8795907 57.7262218,69.9347007 C57.7262218,67.9850264 56.1428053,66.4061489 54.1869616,66.4061489 L54.1677396,66.4061489 C52.2118959,66.4061489 50.6356877,67.9850264 50.6356877,69.9347007 C50.6356877,71.8795907 52.231118,73.4608603 54.1869616,73.4608603 M28.8715205,22.1329907 L28.8498957,22.1329907 C26.894052,22.1329907 25.3202466,23.7142604 25.3202466,25.6615426 C25.3202466,27.6088247 26.9156769,29.1877021 28.8715205,29.1877021 C30.8249615,29.1877021 32.4107807,27.6088247 32.4107807,25.6615426 C32.4107807,23.7142604 30.8249615,22.1329907 28.8715205,22.1329907 M28.8715205,88.5439242 L28.8498957,88.5439242 C26.894052,88.5439242 25.3202466,90.1204093 25.3202466,92.0700837 C25.3202466,94.0149736 26.9156769,95.5938511 28.8715205,95.5938511 C30.8249615,95.5938511 32.4107807,94.0149736 32.4107807,92.0700837 C32.4107807,90.1204093 30.8249615,88.5439242 28.8715205,88.5439242 M28.8715205,110.676915 L28.8498957,110.676915 C26.894052,110.676915 25.3202466,112.255792 25.3202466,114.203074 C25.3202466,116.150357 26.9156769,117.729234 28.8715205,117.729234 C30.8249615,117.729234 32.4107807,116.150357 32.4107807,114.203074 C32.4107807,112.255792 30.8249615,110.676915 28.8715205,110.676915 M54.1869616,29.1877021 C56.1428053,29.1877021 57.7262218,27.6088247 57.7262218,25.6615426 C57.7262218,23.7142604 56.1428053,22.1329907 54.1869616,22.1329907 L54.1677396,22.1329907 C52.2118959,22.1329907 50.6356877,23.7142604 50.6356877,25.6615426 C50.6356877,27.6088247 52.231118,29.1877021 54.1869616,29.1877021 M54.1869616,51.3230851 C56.1428053,51.3230851 57.7262218,49.7418154 57.7262218,47.7969255 C57.7262218,45.8496434 56.1428053,44.2683737 54.1869616,44.2683737 L54.1677396,44.2683737 C52.2118959,44.2683737 50.6356877,45.8496434 50.6356877,47.7969255 C50.6356877,49.7418154 52.231118,51.3230851 54.1869616,51.3230851 M54.1869616,7.05231914 C56.1428053,7.05231914 57.7262218,5.47344172 57.7262218,3.52615957 C57.7262218,1.57887742 56.1428053,0 54.1869616,0 L54.1677396,0 C52.2118959,0 50.6356877,1.57887742 50.6356877,3.52615957 C50.6356877,5.47344172 52.231118,7.05231914 54.1869616,7.05231914 M28.8715205,66.4061489 L28.8498957,66.4061489 C26.894052,66.4061489 25.3202466,67.9850264 25.3202466,69.9347007 C25.3202466,71.8795907 26.9156769,73.4608603 28.8715205,73.4608603 C30.8249615,73.4608603 32.4107807,71.8795907 32.4107807,69.9347007 C32.4107807,67.9850264 30.8249615,66.4061489 28.8715205,66.4061489 M3.55127391,88.5439242 L3.53205186,88.5439242 C1.57620818,88.5439242 0,90.1204093 0,92.0700837 C0,94.0149736 1.59543023,95.5938511 3.55127391,95.5938511 C5.50952036,95.5938511 7.0929368,94.0149736 7.0929368,92.0700837 C7.0929368,90.1204093 5.50952036,88.5439242 3.55127391,88.5439242 M3.55127391,66.4061489 L3.53205186,66.4061489 C1.57620818,66.4061489 0,67.9850264 0,69.9347007 C0,71.8795907 1.59543023,73.4608603 3.55127391,73.4608603 C5.50952036,73.4608603 7.0929368,71.8795907 7.0929368,69.9347007 C7.0929368,67.9850264 5.50952036,66.4061489 3.55127391,66.4061489 M3.55127391,110.676915 L3.53205186,110.676915 C3.08513918,110.676915 2.67186508,110.774997 2.28502131,110.930492 C2.08799529,111.004652 1.92460785,111.124264 1.74680388,111.231914 C1.59783299,111.325212 1.44405658,111.40894 1.30950222,111.523767 C1.07883761,111.715146 0.893825369,111.935232 0.718424155,112.176848 C0.684785565,112.229478 0.651146976,112.27493 0.617508387,112.327559 C0.425287877,112.624197 0.283525252,112.935188 0.18501224,113.286847 L0.18501224,113.289239 L0.18501224,113.289239 C0.103318524,113.588269 0.00240275637,113.880122 0.00240275637,114.203074 C0.00240275637,115.592965 0.831353704,116.767554 2.00630157,117.341691 L2.00870432,117.341691 C2.47483906,117.571346 2.98182065,117.722057 3.53445462,117.72445 C3.54166289,117.72445 3.5464684,117.729234 3.55127391,117.729234 C5.50952036,117.729234 7.0929368,116.150357 7.0929368,114.203074 C7.0929368,113.71745 6.99442379,113.253356 6.81421706,112.832322 C6.27840239,111.564435 5.01935806,110.676915 3.55127391,110.676915 M130.140493,66.4061489 L130.121271,66.4061489 C128.165428,66.4061489 126.589219,67.9850264 126.589219,69.9347007 C126.589219,71.8795907 128.18465,73.4608603 130.140493,73.4608603 C132.096337,73.4608603 133.682156,71.8795907 133.682156,69.9347007 C133.682156,67.9850264 132.096337,66.4061489 130.140493,66.4061489 M3.55127391,44.2683737 L3.53205186,44.2683737 C3.12838879,44.2683737 2.75596156,44.3568865 2.40515913,44.4956364 C2.08559253,44.6056794 1.80687279,44.7707438 1.53536132,44.9621229 C1.53536132,44.9645151 1.53295856,44.9645151 1.53295856,44.9645151 C0.627119412,45.6056351 0.00240275637,46.6055908 0.00240275637,47.7969255 C0.00240275637,47.9452443 0.0696799347,48.0744252 0.0864992293,48.2203517 L0.0864992293,48.222744 C0.0864992293,48.2251362 0.0889019857,48.2275285 0.0889019857,48.2323129 C0.201831535,49.0911266 0.588675311,49.8470739 1.2061837,50.399681 C1.29028017,50.4738404 1.39600145,50.5169007 1.48490344,50.5862756 C1.72758183,50.7609091 1.9606492,50.9451114 2.24417445,51.0575466 C2.64783752,51.2250033 3.08513918,51.3230851 3.55127391,51.3230851 C5.01935806,51.3230851 6.27840239,50.4355646 6.81421706,49.1676782 C6.99442379,48.744252 7.0929368,48.2825499 7.0929368,47.7969255 C7.0929368,47.3089089 6.99442379,46.8472068 6.81421706,46.4237806 C6.27840239,45.1558942 5.01935806,44.2683737 3.55127391,44.2683737 M130.140493,88.5439242 L130.121271,88.5439242 C128.165428,88.5439242 126.589219,90.1204093 126.589219,92.0700837 C126.589219,94.0149736 128.18465,95.5938511 130.140493,95.5938511 C132.096337,95.5938511 133.682156,94.0149736 133.682156,92.0700837 C133.682156,90.1204093 132.096337,88.5439242 130.140493,88.5439242 M130.140493,44.2683737 L130.121271,44.2683737 C128.165428,44.2683737 126.589219,45.8496434 126.589219,47.7969255 C126.589219,49.7418154 128.18465,51.3230851 130.140493,51.3230851 C132.096337,51.3230851 133.682156,49.7418154 133.682156,47.7969255 C133.682156,45.8496434 132.096337,44.2683737 130.140493,44.2683737 M130.140493,132.812298 L130.121271,132.812298 C128.165428,132.812298 126.589219,134.391175 126.589219,136.34085 C126.589219,138.28574 128.18465,139.864617 130.140493,139.864617 C132.096337,139.864617 133.682156,138.28574 133.682156,136.34085 C133.682156,134.391175 132.096337,132.812298 130.140493,132.812298 M130.140493,110.676915 L130.121271,110.676915 C128.165428,110.676915 126.589219,112.255792 126.589219,114.203074 C126.589219,116.150357 128.18465,117.729234 130.140493,117.729234 C132.096337,117.729234 133.682156,116.150357 133.682156,114.203074 C133.682156,112.255792 132.096337,110.676915 130.140493,110.676915 M104.822649,7.05231914 C106.778493,7.05231914 108.364312,5.47344172 108.364312,3.52615957 L108.36191,3.52137509 C108.36191,2.94723785 108.191314,2.42812209 107.948635,1.95206663 C107.924608,1.9066141 107.890969,1.87312276 107.866942,1.83006246 C107.609847,1.37553715 107.259044,1.00234794 106.833756,0.700925885 L106.831354,0.700925885 L106.831354,0.698533646 C106.252289,0.291853099 105.584323,0 104.822649,0 L104.803427,0 C102.847584,0 101.268973,1.57887742 101.268973,3.52615957 C101.268973,5.47344172 102.866806,7.05231914 104.822649,7.05231914 M130.140493,22.1329907 L130.121271,22.1329907 C128.165428,22.1329907 126.589219,23.7142604 126.589219,25.6615426 C126.589219,27.6088247 128.18465,29.1877021 130.140493,29.1877021 C132.096337,29.1877021 133.682156,27.6088247 133.682156,25.6615426 C133.682156,23.7142604 132.096337,22.1329907 130.140493,22.1329907 M104.822649,44.2683737 L104.803427,44.2683737 C102.847584,44.2683737 101.271375,45.8496434 101.271375,47.7969255 C101.271375,49.7418154 102.866806,51.3230851 104.822649,51.3230851 C106.778493,51.3230851 108.364312,49.7418154 108.364312,47.7969255 C108.364312,45.8496434 106.778493,44.2683737 104.822649,44.2683737 M104.822649,110.676915 L104.803427,110.676915 C102.847584,110.676915 101.271375,112.255792 101.271375,114.203074 C101.271375,116.150357 102.866806,117.729234 104.822649,117.729234 C106.778493,117.729234 108.364312,116.150357 108.364312,114.203074 C108.364312,112.255792 106.778493,110.676915 104.822649,110.676915 M104.822649,88.5439242 L104.803427,88.5439242 C102.847584,88.5439242 101.271375,90.1204093 101.271375,92.0700837 C101.271375,94.0149736 102.866806,95.5938511 104.822649,95.5938511 C106.778493,95.5938511 108.364312,94.0149736 108.364312,92.0700837 C108.364312,90.1204093 106.778493,88.5439242 104.822649,88.5439242 M104.822649,66.4061489 L104.803427,66.4061489 C102.847584,66.4061489 101.271375,67.9850264 101.271375,69.9347007 C101.271375,71.8795907 102.866806,73.4608603 104.822649,73.4608603 C106.778493,73.4608603 108.364312,71.8795907 108.364312,69.9347007 C108.364312,67.9850264 106.778493,66.4061489 104.822649,66.4061489 M104.822649,132.812298 L104.803427,132.812298 C102.847584,132.812298 101.271375,134.391175 101.271375,136.34085 C101.271375,138.28574 102.866806,139.864617 104.822649,139.864617 C106.778493,139.864617 108.364312,138.28574 108.364312,136.34085 C108.364312,134.391175 106.778493,132.812298 104.822649,132.812298 M54.1869616,95.5938511 C56.1428053,95.5938511 57.7262218,94.0149736 57.7262218,92.0700837 C57.7262218,90.1204093 56.1428053,88.5439242 54.1869616,88.5439242 L54.1677396,88.5439242 C52.2118959,88.5439242 50.6356877,90.1204093 50.6356877,92.0700837 C50.6356877,94.0149736 52.231118,95.5938511 54.1869616,95.5938511 M56.6906338,155.98352 C56.5849125,155.878262 56.4407471,155.825632 56.3230121,155.734727 C55.722323,155.270633 55.0063016,154.947681 54.1869616,154.947681 L54.1653368,154.947681 C52.2118959,154.947681 50.6356877,156.526558 50.6356877,158.476233 C50.6356877,159.433128 51.027337,160.294334 51.6520537,160.930669 L51.6544564,160.935454 C52.3007979,161.588535 53.1946233,162 54.1869616,162 C54.3719739,162 54.5353613,161.921056 54.715568,161.894742 L54.715568,161.894742 C54.7179708,161.894742 54.7203736,161.892349 54.7227763,161.892349 C55.5565328,161.760776 56.2869707,161.378018 56.8203826,160.775174 C56.9068819,160.679484 56.9573397,160.564657 57.0318252,160.464183 C57.1928099,160.23692 57.3634056,160.021619 57.4667241,159.760865 C57.6277088,159.368538 57.7214163,158.945111 57.723819,158.488194 C57.723819,158.485802 57.7262218,158.481017 57.7262218,158.476233 C57.7262218,157.581535 57.3658083,156.787312 56.8131744,156.16533 C56.7651192,156.107917 56.7410917,156.033757 56.6906338,155.98352 M154.076752,51.0431932 C154.50204,51.2250033 154.968175,51.3230851 155.455934,51.3230851 C155.97493,51.3230851 156.457884,51.1986887 156.899991,51.0001329 C156.914407,50.9953484 156.924018,50.980995 156.938435,50.9762105 C157.368528,50.7752625 157.743358,50.4905861 158.05812,50.1437115 L158.05812,50.1437115 L158.05812,50.1413193 C158.627573,49.516945 158.997597,48.7059762 158.997597,47.7945333 C158.997597,45.8496434 157.411778,44.2683737 155.455934,44.2683737 L155.439115,44.2683737 C153.483271,44.2683737 151.907063,45.8496434 151.907063,47.7945333 L151.907063,47.7969255 C151.907063,49.256191 152.803291,50.509724 154.076752,51.0431932 M155.455934,73.4608603 C157.411778,73.4608603 158.997597,71.8795907 158.997597,69.9347007 C158.997597,67.9850264 157.411778,66.4061489 155.455934,66.4061489 L155.439115,66.4061489 C153.483271,66.4061489 151.907063,67.9850264 151.907063,69.9347007 C151.907063,71.8795907 153.500091,73.4608603 155.455934,73.4608603 M155.455934,95.5938511 C157.411778,95.5938511 158.997597,94.0149736 158.997597,92.0700837 C158.997597,90.1204093 157.411778,88.5439242 155.455934,88.5439242 L155.439115,88.5439242 C153.483271,88.5439242 151.907063,90.1204093 151.907063,92.0700837 C151.907063,94.0149736 153.500091,95.5938511 155.455934,95.5938511 M79.5024028,44.2683737 L79.4879862,44.2683737 C77.5321425,44.2683737 75.9535316,45.8496434 75.9535316,47.7969255 C75.9535316,49.7418154 77.5489618,51.3230851 79.5024028,51.3230851 C81.4606492,51.3230851 83.0464684,49.7418154 83.0464684,47.7969255 C83.0464684,45.8496434 81.4606492,44.2683737 79.5024028,44.2683737 M79.5024028,22.1329907 L79.4879862,22.1329907 C77.5321425,22.1329907 75.9535316,23.7142604 75.9535316,25.6615426 C75.9535316,27.6088247 77.5489618,29.1877021 79.5024028,29.1877021 C81.4606492,29.1877021 83.0464684,27.6088247 83.0464684,25.6615426 C83.0464684,23.7142604 81.4606492,22.1329907 79.5024028,22.1329907 M79.5024028,0 L79.4879862,0 C77.5321425,0 75.9535316,1.57887742 75.9535316,3.52615957 C75.9535316,5.47344172 77.5489618,7.05231914 79.5024028,7.05231914 C81.4606492,7.05231914 83.0464684,5.47344172 83.0464684,3.52615957 C83.0464684,1.57887742 81.4606492,0 79.5024028,0 M54.1869616,139.864617 C56.1428053,139.864617 57.7262218,138.28574 57.7262218,136.34085 C57.7262218,134.391175 56.1428053,132.812298 54.1869616,132.812298 L54.1677396,132.812298 C52.2118959,132.812298 50.6356877,134.391175 50.6356877,136.34085 C50.6356877,138.28574 52.231118,139.864617 54.1869616,139.864617 M54.1869616,117.729234 C56.1428053,117.729234 57.7262218,116.150357 57.7262218,114.203074 C57.7262218,112.255792 56.1428053,110.676915 54.1869616,110.676915 L54.1677396,110.676915 C52.2118959,110.676915 50.6356877,112.255792 50.6356877,114.203074 C50.6356877,116.150357 52.231118,117.729234 54.1869616,117.729234 M79.5024028,66.4061489 L79.4879862,66.4061489 C77.5321425,66.4061489 75.9535316,67.9850264 75.9535316,69.9347007 C75.9535316,71.8795907 77.5489618,73.4608603 79.5024028,73.4608603 C81.4606492,73.4608603 83.0464684,71.8795907 83.0464684,69.9347007 C83.0464684,67.9850264 81.4606492,66.4061489 79.5024028,66.4061489 M104.822649,22.1329907 L104.803427,22.1329907 C102.847584,22.1329907 101.271375,23.7142604 101.271375,25.6615426 C101.271375,27.6088247 102.866806,29.1877021 104.822649,29.1877021 C106.778493,29.1877021 108.364312,27.6088247 108.364312,25.6615426 C108.364312,23.7142604 106.778493,22.1329907 104.822649,22.1329907 M79.5024028,132.812298 L79.4879862,132.812298 C77.5321425,132.812298 75.9535316,134.391175 75.9535316,136.34085 C75.9535316,138.28574 77.5489618,139.864617 79.5024028,139.864617 C81.4606492,139.864617 83.0464684,138.28574 83.0464684,136.34085 C83.0464684,134.391175 81.4606492,132.812298 79.5024028,132.812298 M79.5024028,154.947681 L79.4879862,154.947681 C77.5321425,154.947681 75.9535316,156.526558 75.9535316,158.476233 C75.9535316,160.421123 77.5489618,162 79.5024028,162 C81.4606492,162 83.0464684,160.421123 83.0464684,158.476233 C83.0464684,156.526558 81.4606492,154.947681 79.5024028,154.947681 M79.5024028,110.676915 L79.4879862,110.676915 C77.5321425,110.676915 75.9535316,112.255792 75.9535316,114.203074 C75.9535316,116.150357 77.5489618,117.729234 79.5024028,117.729234 C81.4606492,117.729234 83.0464684,116.150357 83.0464684,114.203074 C83.0464684,112.255792 81.4606492,110.676915 79.5024028,110.676915 M79.5024028,88.5439242 L79.4879862,88.5439242 C77.5321425,88.5439242 75.9535316,90.1204093 75.9535316,92.0700837 C75.9535316,94.0149736 77.5489618,95.5938511 79.5024028,95.5938511 C81.4606492,95.5938511 83.0464684,94.0149736 83.0464684,92.0700837 C83.0464684,90.1204093 81.4606492,88.5439242 79.5024028,88.5439242" id="Fill-1" fill="#F50E02" mask="url(#mask-5)"></path>
                    </g>
                </g>
            </g>
        </g>
    </g>
</svg>
