<?xml version="1.0" encoding="UTF-8"?>
<svg viewBox="0 0 409 601" version="1.1" xmlns="http://www.w3.org/2000/svg" xmlns:xlink="http://www.w3.org/1999/xlink">
    <!-- Generator: Sketch 64 (93537) - https://sketch.com -->
    <title>Fill 2 Copy</title>
    <desc>Created with Sketch.</desc>
    <defs>
        <linearGradient x1="50%" y1="0%" x2="50%" y2="100%" id="linearGradient-1">
            <stop stop-color="#F50E02" offset="0%"></stop>
            <stop stop-color="#FFFFFF" offset="100%"></stop>
        </linearGradient>
    </defs>
    <g id="Page-1" stroke="none" stroke-width="1" fill="none" fill-rule="evenodd">
        <g id="Home-Copy" transform="translate(0.000000, -3765.000000)">
            <path d="M530.439525,4210.12758 C524.413681,4214.97084 514.249521,4212.22434 507.031805,4212.22434 L-65.02686,4212.22434 C-65.2405424,4211.8364 -65.3592549,4211.62459 -65.3592549,4211.62459 C-79.5548894,4186.71333 -95.6950337,4162.53986 -103.75086,4134.6679 C-126.185139,4057.04483 -54.6917544,4004.54245 -8.47699857,3954.86035 C17.984006,3926.41958 19.9949948,3885.46011 42.8875032,3855.09394 C74.2442091,3813.50377 127.261188,3791.8388 177.877801,3788.45447 C236.046901,3784.56796 285.514378,3805.57367 320.852699,3852.81867 C349.927752,3891.68852 366.490512,3951.8473 412.178185,3975.23537 C428.558128,3983.62004 447.544997,3984.64819 465.292508,3989.42243 C523.179072,4004.99465 568.439379,4065.0844 562.470518,4126.15947 C558.598118,4165.79329 536.197079,4205.49613 530.439525,4210.12758 Z" id="Fill-2-Copy" fill="url(#linearGradient-1)" opacity="0.149999991" transform="translate(227.500000, 4000.500000) rotate(48.000000) translate(-227.500000, -4000.500000) "></path>
        </g>
    </g>
</svg>
