<?xml version="1.0" encoding="UTF-8"?>
<svg viewBox="0 0 568 425" version="1.1" xmlns="http://www.w3.org/2000/svg" xmlns:xlink="http://www.w3.org/1999/xlink">
    <!-- Generator: Sketch 64 (93537) - https://sketch.com -->
    <title>Fill 2</title>
    <desc>Created with Sketch.</desc>
    <defs>
        <linearGradient x1="50%" y1="0%" x2="50%" y2="100%" id="linearGradient-1">
            <stop stop-color="#F50E02" offset="0%"></stop>
            <stop stop-color="#FFFFFF" offset="100%"></stop>
        </linearGradient>
    </defs>
    <g id="Page-1" stroke="none" stroke-width="1" fill="none" fill-rule="evenodd">
        <g id="Home-Copy" transform="translate(-1352.000000, -3728.000000)">
            <path d="M2022.47052,4066.15947 C2018.59812,4105.79329 1996.19708,4145.49613 1990.43952,4150.12758 C1984.41368,4154.97084 1974.24952,4152.22434 1967.0318,4152.22434 L1394.97314,4152.22434 C1394.75946,4151.8364 1394.64075,4151.62459 1394.64075,4151.62459 C1380.44511,4126.71333 1364.30497,4102.53986 1356.24914,4074.6679 C1333.81486,3997.04483 1405.30825,3944.54245 1451.523,3894.86035 C1477.98401,3866.41958 1479.99499,3825.46011 1502.8875,3795.09394 C1534.24421,3753.50377 1587.26119,3731.8388 1637.8778,3728.45447 C1696.0469,3724.56796 1745.51438,3745.57367 1780.8527,3792.81867 C1809.92775,3831.68852 1826.49051,3891.8473 1872.17818,3915.23537 C1888.55813,3923.62004 1907.545,3924.64819 1925.29251,3929.42243 C1983.17907,3944.99465 2028.43938,4005.0844 2022.47052,4066.15947" id="Fill-2" fill="url(#linearGradient-1)" opacity="0.149999991"></path>
        </g>
    </g>
</svg>
